<svg width="30" height="30" viewBox="0 0 30 30" fill="none" xmlns="http://www.w3.org/2000/svg">
<path d="M16.3125 24.275C15.6375 24.275 14.925 24.2125 14.15 24.0875L8.28751 23.1625C6.43751 22.875 5.01251 22.3625 3.95001 21.6125C1.21251 19.7125 1.37501 16.45 1.72501 14.1625L2.65001 8.3C3.50001 2.925 6.27501 0.912503 11.65 1.75L17.5125 2.675C20.275 3.1125 23.9875 4.225 24.225 8.8875C24.275 9.6875 24.225 10.6 24.05 11.675L23.1375 17.5375C22.4125 22.125 20.275 24.275 16.3125 24.275ZM9.41251 3.4375C6.43751 3.4375 5.08751 4.95 4.50001 8.6L3.57501 14.4625C3.00001 18.15 4.05001 19.4 5.02501 20.0875C5.85001 20.675 7.01251 21.075 8.57501 21.3125L14.4375 22.2375C18.8 22.925 20.6 21.6125 21.2875 17.2375L22.2 11.375C22.35 10.4375 22.4 9.65 22.35 8.9875V8.975C22.2125 6.35 20.725 5.0625 17.2125 4.5125L11.3625 3.6C10.6375 3.4875 10 3.4375 9.41251 3.4375Z" fill="#707070"/>
<path d="M18.3513 28.4363C17.2888 28.4363 16.0888 28.2112 14.7013 27.7487L9.06376 25.8737C5.85126 24.8112 4.11376 23.2863 3.58876 21.0613C3.50126 20.6863 3.65126 20.2863 3.97626 20.0738C4.30126 19.8613 4.72626 19.8613 5.03876 20.0863C5.86376 20.6738 7.01376 21.0738 8.57626 21.3113L14.4388 22.2363C18.8013 22.9238 20.6013 21.6113 21.2888 17.2363L22.2013 11.3738C22.3513 10.4363 22.4013 9.64875 22.3513 8.98625C22.3388 8.66125 22.5013 8.33625 22.7888 8.14875C22.9289 8.0571 23.0913 8.00521 23.2586 7.99861C23.4259 7.992 23.5918 8.03093 23.7388 8.11125C27.0888 9.89875 27.9763 12.7613 26.5263 17.1363L24.6513 22.7738C23.7638 25.4238 22.6013 27.0487 20.9763 27.8612C20.1888 28.2487 19.3263 28.4363 18.3513 28.4363ZM7.16376 22.9487C7.76376 23.3487 8.56376 23.7362 9.65126 24.0987L15.2888 25.9738C17.4388 26.6863 18.9763 26.7487 20.1263 26.1862C21.2763 25.6112 22.1513 24.3363 22.8638 22.1863L24.7388 16.5488C25.7638 13.4488 25.3638 11.7988 24.1763 10.6863C24.1513 10.9988 24.1013 11.3238 24.0513 11.6738L23.1388 17.5363C22.2888 22.9113 19.5138 24.9237 14.1388 24.0987L8.27626 23.1738C7.88876 23.0988 7.51376 23.0237 7.16376 22.9487ZM10.3 12.1475C8.58751 12.1475 7.18751 10.7475 7.18751 9.035C7.18751 7.3225 8.58751 5.9225 10.3 5.9225C12.0125 5.9225 13.4125 7.3225 13.4125 9.035C13.4125 10.7475 12.0125 12.1475 10.3 12.1475ZM10.3 7.81C9.62501 7.81 9.06251 8.36 9.06251 9.0475C9.06251 9.735 9.61251 10.285 10.3 10.285C10.975 10.285 11.5375 9.735 11.5375 9.0475C11.5375 8.36 10.975 7.81 10.3 7.81Z" fill="#707070"/>
</svg>
