<svg width="27" height="27" viewBox="0 0 27 27" fill="none" xmlns="http://www.w3.org/2000/svg">
<path d="M9 6.46875C8.53875 6.46875 8.15625 6.08625 8.15625 5.625V2.25C8.15625 1.78875 8.53875 1.40625 9 1.40625C9.46125 1.40625 9.84375 1.78875 9.84375 2.25V5.625C9.84375 6.08625 9.46125 6.46875 9 6.46875ZM18 6.46875C17.5388 6.46875 17.1562 6.08625 17.1562 5.625V2.25C17.1562 1.78875 17.5388 1.40625 18 1.40625C18.4612 1.40625 18.8438 1.78875 18.8438 2.25V5.625C18.8438 6.08625 18.4612 6.46875 18 6.46875ZM9.5625 16.3103C9.41625 16.3103 9.27 16.2765 9.135 16.2203C8.98875 16.164 8.87625 16.0853 8.76375 15.984C8.56125 15.7703 8.4375 15.489 8.4375 15.1853C8.4375 15.039 8.47125 14.8928 8.5275 14.7578C8.58375 14.6228 8.6625 14.499 8.76375 14.3865C8.87625 14.2853 8.98875 14.2065 9.135 14.1503C9.54 13.9815 10.0463 14.0715 10.3613 14.3865C10.5638 14.6003 10.6875 14.8928 10.6875 15.1853C10.6875 15.2528 10.6762 15.3315 10.665 15.4102C10.6537 15.4777 10.6313 15.5453 10.5975 15.6128C10.575 15.6803 10.5412 15.7477 10.4962 15.8152C10.4625 15.8715 10.4063 15.9278 10.3613 15.984C10.1475 16.1865 9.855 16.3103 9.5625 16.3103ZM13.5 16.3114C13.3538 16.3114 13.2075 16.2776 13.0725 16.2214C12.9262 16.1651 12.8137 16.0864 12.7012 15.9851C12.4987 15.7714 12.375 15.4901 12.375 15.1864C12.375 15.0401 12.4087 14.8939 12.465 14.7589C12.5212 14.6239 12.6 14.5001 12.7012 14.3876C12.8137 14.2864 12.9262 14.2076 13.0725 14.1514C13.4775 13.9714 13.9838 14.0726 14.2988 14.3876C14.5013 14.6014 14.625 14.8939 14.625 15.1864C14.625 15.2539 14.6137 15.3326 14.6025 15.4114C14.5912 15.4789 14.5688 15.5464 14.535 15.6139C14.5125 15.6814 14.4787 15.7489 14.4337 15.8164C14.4 15.8726 14.3438 15.9289 14.2988 15.9851C14.085 16.1876 13.7925 16.3114 13.5 16.3114ZM17.4375 16.3114C17.2913 16.3114 17.145 16.2776 17.01 16.2214C16.8637 16.1651 16.7512 16.0864 16.6387 15.9851L16.5038 15.8164C16.4611 15.7537 16.4271 15.6856 16.4025 15.6139C16.37 15.5501 16.3472 15.4819 16.335 15.4114C16.3238 15.3326 16.3125 15.2539 16.3125 15.1864C16.3125 14.8939 16.4362 14.6014 16.6387 14.3876C16.7512 14.2864 16.8637 14.2076 17.01 14.1514C17.4262 13.9714 17.9212 14.0726 18.2362 14.3876C18.4387 14.6014 18.5625 14.8939 18.5625 15.1864C18.5625 15.2539 18.5512 15.3326 18.54 15.4114C18.5287 15.4789 18.5063 15.5464 18.4725 15.6139C18.45 15.6814 18.4162 15.7489 18.3712 15.8164C18.3375 15.8726 18.2812 15.9289 18.2362 15.9851C18.0225 16.1876 17.73 16.3114 17.4375 16.3114ZM9.5625 20.25C9.41625 20.25 9.27 20.2163 9.135 20.16C9 20.1038 8.87625 20.025 8.76375 19.9237C8.56125 19.71 8.4375 19.4175 8.4375 19.125C8.4375 18.9788 8.47125 18.8325 8.5275 18.6975C8.58375 18.5513 8.6625 18.4275 8.76375 18.3263C9.18 17.91 9.945 17.91 10.3613 18.3263C10.5638 18.54 10.6875 18.8325 10.6875 19.125C10.6875 19.4175 10.5638 19.71 10.3613 19.9237C10.1475 20.1262 9.855 20.25 9.5625 20.25ZM13.5 20.25C13.2075 20.25 12.915 20.1262 12.7012 19.9237C12.4987 19.71 12.375 19.4175 12.375 19.125C12.375 18.9788 12.4087 18.8325 12.465 18.6975C12.5212 18.5513 12.6 18.4275 12.7012 18.3263C13.1175 17.91 13.8825 17.91 14.2988 18.3263C14.4 18.4275 14.4788 18.5513 14.535 18.6975C14.5913 18.8325 14.625 18.9788 14.625 19.125C14.625 19.4175 14.5013 19.71 14.2988 19.9237C14.085 20.1262 13.7925 20.25 13.5 20.25ZM17.4375 20.25C17.145 20.25 16.8525 20.1262 16.6387 19.9237C16.5347 19.8181 16.4541 19.6916 16.4025 19.5525C16.3447 19.4173 16.3141 19.272 16.3125 19.125C16.3125 18.9788 16.3462 18.8325 16.4025 18.6975C16.4587 18.5513 16.5375 18.4275 16.6387 18.3263C16.8975 18.0675 17.2912 17.9438 17.6512 18.0225C17.73 18.0338 17.7975 18.0562 17.865 18.09C17.9325 18.1125 18 18.1463 18.0675 18.1913C18.1237 18.225 18.18 18.2813 18.2362 18.3263C18.4387 18.54 18.5625 18.8325 18.5625 19.125C18.5625 19.4175 18.4387 19.71 18.2362 19.9237C18.0225 20.1262 17.73 20.25 17.4375 20.25ZM23.0625 11.07H3.9375C3.47625 11.07 3.09375 10.6875 3.09375 10.2263C3.09375 9.765 3.47625 9.3825 3.9375 9.3825H23.0625C23.5237 9.3825 23.9062 9.765 23.9062 10.2263C23.9062 10.6875 23.5237 11.07 23.0625 11.07Z" fill="#707070"/>
<path d="M18 25.5938H9C4.89375 25.5938 2.53125 23.2313 2.53125 19.125V9.5625C2.53125 5.45625 4.89375 3.09375 9 3.09375H18C22.1063 3.09375 24.4688 5.45625 24.4688 9.5625V19.125C24.4688 23.2313 22.1063 25.5938 18 25.5938ZM9 4.78125C5.7825 4.78125 4.21875 6.345 4.21875 9.5625V19.125C4.21875 22.3425 5.7825 23.9062 9 23.9062H18C21.2175 23.9062 22.7812 22.3425 22.7812 19.125V9.5625C22.7812 6.345 21.2175 4.78125 18 4.78125H9Z" fill="#707070"/>
</svg>
