<svg width="27" height="27" viewBox="0 0 27 27" fill="none" xmlns="http://www.w3.org/2000/svg">
<path d="M13.6688 21.7687C13.2075 21.7687 12.825 21.3863 12.825 20.925V18.5625C12.825 18.1012 13.2075 17.7188 13.6688 17.7188C14.13 17.7188 14.5125 18.1012 14.5125 18.5625V20.925C14.5125 21.3863 14.13 21.7687 13.6688 21.7687Z" fill="#707070"/>
<path d="M20.1375 25.5938H7.20001V23.625C7.20001 21.915 8.58376 20.5312 10.2938 20.5312H17.0438C18.7538 20.5312 20.1375 21.915 20.1375 23.625V25.5938ZM8.88751 23.9062H18.45V23.625C18.45 22.8488 17.82 22.2188 17.0438 22.2188H10.2938C9.51751 22.2188 8.88751 22.8488 8.88751 23.625V23.9062Z" fill="#707070"/>
<path d="M20.4188 25.5938H6.91876C6.45751 25.5938 6.07501 25.2113 6.07501 24.75C6.07501 24.2888 6.45751 23.9063 6.91876 23.9063H20.4188C20.88 23.9063 21.2625 24.2888 21.2625 24.75C21.2625 25.2113 20.88 25.5938 20.4188 25.5938ZM20.7338 13.9939C20.4975 13.9939 20.2613 13.8926 20.0925 13.7014C19.9873 13.5817 19.9187 13.4343 19.8947 13.2768C19.8708 13.1192 19.8926 12.9582 19.9575 12.8126C20.34 11.9351 20.5313 11.0014 20.5313 10.0226V6.64763C20.5313 6.25388 20.4638 5.87138 20.3288 5.46638C20.3161 5.42553 20.3048 5.38425 20.295 5.34263C20.2613 5.17388 20.25 5.00513 20.25 4.84763C20.25 4.38638 20.6325 4.00388 21.0938 4.00388H21.7688C23.7825 4.00388 25.425 5.69138 25.425 7.77263C25.425 9.49388 24.7163 11.1926 23.49 12.4189C23.4675 12.4414 23.4 12.4976 23.3888 12.5089C22.725 13.0601 21.9713 13.6789 20.9588 13.9601C20.88 13.9826 20.8125 13.9939 20.7338 13.9939ZM22.14 5.72513C22.1963 6.02888 22.2188 6.34388 22.2188 6.64763V10.0226C22.2188 10.4839 22.185 10.9226 22.1175 11.3726L22.3088 11.2151C23.2088 10.3151 23.7375 9.05513 23.7375 7.77263C23.7375 6.76013 23.0513 5.90513 22.14 5.72513ZM6.27751 13.9523C6.18919 13.9538 6.10138 13.9385 6.01876 13.9073C5.09626 13.6148 4.23001 13.0748 3.51001 12.3548C2.21626 10.926 1.57501 9.36225 1.57501 7.7085C1.57501 5.661 3.18376 4.05225 5.23126 4.05225H5.96251C6.24376 4.05225 6.51376 4.1985 6.67126 4.43475C6.82876 4.671 6.85126 4.97475 6.73876 5.2335C6.55876 5.6385 6.46876 6.09975 6.46876 6.5835V9.9585C6.46876 10.926 6.66001 11.871 7.05376 12.771C7.18876 13.0748 7.12126 13.4235 6.90751 13.671C6.73876 13.851 6.51376 13.9523 6.27751 13.9523ZM4.83751 5.7735C3.92626 5.9535 3.26251 6.741 3.26251 7.7085C3.26251 8.93475 3.75751 10.116 4.73626 11.196C4.78126 11.2523 4.83751 11.2973 4.89376 11.3423C4.81501 10.881 4.78126 10.4198 4.78126 9.9585V6.5835C4.78126 6.3135 4.80376 6.0435 4.83751 5.7735Z" fill="#707070"/>
<path d="M13.5 18.8438C8.69625 18.8438 4.78125 14.9287 4.78125 10.125V6.75C4.78125 3.8025 7.1775 1.40625 10.125 1.40625H16.875C19.8225 1.40625 22.2188 3.8025 22.2188 6.75V10.125C22.2188 14.9287 18.3037 18.8438 13.5 18.8438ZM10.125 3.09375C8.11125 3.09375 6.46875 4.73625 6.46875 6.75V10.125C6.46875 14.0063 9.61875 17.1562 13.5 17.1562C17.3813 17.1562 20.5312 14.0063 20.5312 10.125V6.75C20.5312 4.73625 18.8887 3.09375 16.875 3.09375H10.125Z" fill="#707070"/>
</svg>
