<svg width="27" height="27" viewBox="0 0 27 27" fill="none" xmlns="http://www.w3.org/2000/svg">
<mask id="path-1-inside-1_1_34" fill="white">
<path d="M20.2667 26.26H6.73335C4.53418 26.26 2.52835 24.5683 2.16585 22.4054L0.558763 12.775C0.29293 11.2767 1.03001 9.35542 2.22626 8.40084L10.6 1.69458C12.2192 0.389584 14.7688 0.401668 16.4 1.70667L24.7738 8.40084C25.9579 9.35542 26.6829 11.2767 26.4413 12.775L24.8342 22.3933C24.4717 24.5321 22.4175 26.26 20.2667 26.26ZM13.4879 2.54042C12.8475 2.54042 12.2071 2.73375 11.7358 3.10833L3.3621 9.82667C2.68543 10.3704 2.2021 11.6271 2.3471 12.485L3.95418 22.1033C4.17168 23.3721 5.44043 24.4475 6.73335 24.4475H20.2667C21.5596 24.4475 22.8283 23.3721 23.0458 22.0913L24.6529 12.4729C24.7858 11.6271 24.3025 10.3463 23.6379 9.81458L15.2642 3.12042C14.7808 2.73375 14.1283 2.54042 13.4879 2.54042Z"/>
</mask>
<path d="M20.2667 26.26H6.73335C4.53418 26.26 2.52835 24.5683 2.16585 22.4054L0.558763 12.775C0.29293 11.2767 1.03001 9.35542 2.22626 8.40084L10.6 1.69458C12.2192 0.389584 14.7688 0.401668 16.4 1.70667L24.7738 8.40084C25.9579 9.35542 26.6829 11.2767 26.4413 12.775L24.8342 22.3933C24.4717 24.5321 22.4175 26.26 20.2667 26.26ZM13.4879 2.54042C12.8475 2.54042 12.2071 2.73375 11.7358 3.10833L3.3621 9.82667C2.68543 10.3704 2.2021 11.6271 2.3471 12.485L3.95418 22.1033C4.17168 23.3721 5.44043 24.4475 6.73335 24.4475H20.2667C21.5596 24.4475 22.8283 23.3721 23.0458 22.0913L24.6529 12.4729C24.7858 11.6271 24.3025 10.3463 23.6379 9.81458L15.2642 3.12042C14.7808 2.73375 14.1283 2.54042 13.4879 2.54042Z" fill="#707070"/>
<path d="M2.16585 22.4054L-8.68412 24.216L-8.68284 24.2236L2.16585 22.4054ZM0.558763 12.775L11.4087 10.9644L11.3995 10.9089L11.3896 10.8534L0.558763 12.775ZM2.22626 8.40084L9.08731 16.9989L9.09488 16.9928L9.10244 16.9868L2.22626 8.40084ZM10.6 1.69458L17.4762 10.2805L17.4895 10.2698L17.5028 10.2591L10.6 1.69458ZM16.4 1.70667L9.52837 10.2962L9.53139 10.2986L16.4 1.70667ZM24.7738 8.40084L31.6773 -0.163086L31.6599 -0.177148L31.6424 -0.19114L24.7738 8.40084ZM26.4413 12.775L37.2909 14.5878L37.296 14.5572L37.3009 14.5266L26.4413 12.775ZM24.8342 22.3933L35.6795 24.2315L35.6817 24.2188L35.6838 24.2061L24.8342 22.3933ZM11.7358 3.10833L4.89116 -5.50272L4.87161 -5.48718L4.85213 -5.47155L11.7358 3.10833ZM3.3621 9.82667L-3.52162 1.24678L-3.52821 1.25207L3.3621 9.82667ZM2.3471 12.485L13.1967 10.6722L13.195 10.662L13.1933 10.6518L2.3471 12.485ZM3.95418 22.1033L-6.89542 23.9161L-6.89159 23.9391L-6.88766 23.9619L3.95418 22.1033ZM23.0458 22.0913L33.8906 23.9328L33.893 23.9184L33.8954 23.9041L23.0458 22.0913ZM24.6529 12.4729L35.5025 14.2857L35.5113 14.2332L35.5196 14.1805L24.6529 12.4729ZM23.6379 9.81458L30.5096 1.22503L30.5066 1.22261L23.6379 9.81458ZM15.2642 3.12042L8.39254 11.71L8.39556 11.7124L15.2642 3.12042ZM20.2667 15.26H6.73335V37.26H20.2667V15.26ZM6.73335 15.26C8.45824 15.26 9.87323 15.9087 10.8544 16.7366C11.8355 17.5644 12.7253 18.8612 13.0145 20.5872L-8.68284 24.2236C-7.42734 31.7148 -0.810112 37.26 6.73335 37.26V15.26ZM13.0158 20.5948L11.4087 10.9644L-10.2912 14.5856L-8.68412 24.216L13.0158 20.5948ZM11.3896 10.8534C11.678 12.4788 11.3654 13.6668 11.1202 14.309C10.8729 14.9564 10.3277 16.0091 9.08731 16.9989L-4.63479 -0.197188C-7.07142 1.74719 -8.58327 4.23781 -9.43169 6.45904C-10.2781 8.67504 -10.8263 11.5728 -10.2721 14.6966L11.3896 10.8534ZM9.10244 16.9868L17.4762 10.2805L3.72384 -6.89135L-4.64991 -0.185095L9.10244 16.9868ZM17.5028 10.2591C16.1154 11.3774 14.6258 11.7252 13.4636 11.7218C12.3014 11.7185 10.8632 11.3641 9.52837 10.2962L23.2717 -6.88289C17.6807 -11.3557 9.40252 -11.4683 3.69724 -6.86997L17.5028 10.2591ZM9.53139 10.2986L17.9051 16.9928L31.6424 -0.19114L23.2686 -6.88531L9.53139 10.2986ZM17.8702 16.9648C16.6236 15.9598 16.0921 14.9033 15.8597 14.2918C15.6265 13.6782 15.3333 12.5631 15.5816 11.0234L37.3009 14.5266C37.7909 11.4885 37.256 8.66369 36.4247 6.47627C35.5942 4.2909 34.1081 1.7964 31.6773 -0.163086L17.8702 16.9648ZM15.5917 10.9622L13.9846 20.5805L35.6838 24.2061L37.2909 14.5878L15.5917 10.9622ZM13.9889 20.5551C14.2952 18.7478 15.2231 17.4856 16.1219 16.7262C17.0175 15.9695 18.4197 15.26 20.2667 15.26V37.26C27.7847 37.26 34.4206 31.6593 35.6795 24.2315L13.9889 20.5551ZM13.4879 -8.45958C10.8097 -8.45958 7.63248 -7.68172 4.89116 -5.50272L18.5805 11.7194C16.7817 13.1492 14.8853 13.5404 13.4879 13.5404V-8.45958ZM4.85213 -5.47155L-3.52162 1.24678L10.2458 18.4066L18.6196 11.6882L4.85213 -5.47155ZM-3.52821 1.25207C-5.84959 3.11747 -7.09214 5.4478 -7.72685 7.10625C-8.36032 8.76144 -9.00103 11.3483 -8.49908 14.3182L13.1933 10.6518C13.5502 12.7638 13.0787 14.2934 12.8198 14.9698C12.5597 15.6495 11.8971 17.0796 10.2524 18.4013L-3.52821 1.25207ZM-8.5025 14.2978L-6.89542 23.9161L14.8038 20.2905L13.1967 10.6722L-8.5025 14.2978ZM-6.88766 23.9619C-5.76792 30.4938 0.0643477 35.4475 6.73335 35.4475V13.4475C9.08999 13.4475 10.8924 14.3796 12.0391 15.3482C13.184 16.3154 14.3993 17.9304 14.796 20.2447L-6.88766 23.9619ZM6.73335 35.4475H20.2667V13.4475H6.73335V35.4475ZM20.2667 35.4475C26.9605 35.4475 32.7811 30.4665 33.8906 23.9328L12.2011 20.2497C12.5906 17.956 13.7912 16.3384 14.9463 15.3591C16.0998 14.3813 17.9081 13.4475 20.2667 13.4475V35.4475ZM33.8954 23.9041L35.5025 14.2857L13.8033 10.6601L12.1963 20.2784L33.8954 23.9041ZM35.5196 14.1805C35.9798 11.2521 35.3325 8.71011 34.7259 7.11523C34.1254 5.53671 32.9001 3.13744 30.5096 1.22503L16.7663 18.4041C15.8102 17.6393 15.2256 16.8675 14.9022 16.3753C14.558 15.8514 14.3252 15.3627 14.1631 14.9366C14.0007 14.5097 13.8544 14.0012 13.765 13.4032C13.6808 12.8407 13.6049 11.9198 13.7863 10.7653L35.5196 14.1805ZM30.5066 1.22261L22.1328 -5.47156L8.39556 11.7124L16.7693 18.4066L30.5066 1.22261ZM22.1358 -5.46914C19.3634 -7.68706 16.1549 -8.45958 13.4879 -8.45958V13.5404C12.1018 13.5404 10.1983 13.1546 8.39254 11.71L22.1358 -5.46914Z" fill="#707070" mask="url(#path-1-inside-1_1_34)"/>
</svg>
