<svg width="28" height="28" viewBox="0 0 28 28" fill="none" xmlns="http://www.w3.org/2000/svg">
<path d="M11.1533 21.875C10.675 21.875 10.2783 21.4783 10.2783 21V15.1667C10.2783 14.6883 10.675 14.2917 11.1533 14.2917C11.6317 14.2917 12.0283 14.6883 12.0283 15.1667V21C12.0283 21.4783 11.6317 21.875 11.1533 21.875Z" fill="#707070"/>
<path d="M14 18.9583H8.16666C7.68832 18.9583 7.29166 18.5617 7.29166 18.0833C7.29166 17.605 7.68832 17.2083 8.16666 17.2083H14C14.4783 17.2083 14.875 17.605 14.875 18.0833C14.875 18.5617 14.4783 18.9583 14 18.9583ZM9.33332 6.70834C8.85499 6.70834 8.45832 6.31168 8.45832 5.83334V2.33334C8.45832 1.85501 8.85499 1.45834 9.33332 1.45834C9.81166 1.45834 10.2083 1.85501 10.2083 2.33334V5.83334C10.2083 6.31168 9.81166 6.70834 9.33332 6.70834ZM18.6667 6.70834C18.1883 6.70834 17.7917 6.31168 17.7917 5.83334V2.33334C17.7917 1.85501 18.1883 1.45834 18.6667 1.45834C19.145 1.45834 19.5417 1.85501 19.5417 2.33334V5.83334C19.5417 6.31168 19.145 6.70834 18.6667 6.70834Z" fill="#707070"/>
<path d="M10.325 26.6117C7.44332 26.6117 5.54165 25.9817 4.35165 24.6283C2.97499 23.0767 2.75332 20.755 2.70665 18.69L2.55499 11.4917C2.43832 5.97335 4.26999 3.67501 9.05332 3.31334L18.4333 3.12668H18.48C23.275 3.29001 25.1883 5.50668 25.305 11.0367L25.445 18.235C25.4917 20.3 25.3517 22.6333 24.045 24.2317C22.855 25.69 20.8483 26.4017 17.7333 26.4717L10.7333 26.6117H10.325ZM18.4333 4.86501L9.13499 5.05168C5.86832 5.30835 4.19999 6.35834 4.30499 11.4567L4.45665 18.655C4.50332 21.1283 4.86499 22.575 5.65832 23.4733C6.54499 24.4767 8.14332 24.92 10.71 24.8617L17.71 24.7217C20.265 24.675 21.8517 24.1617 22.7033 23.1233C23.4617 22.2017 23.765 20.7433 23.7067 18.27L23.5667 11.0717C23.45 5.98501 21.7467 4.98168 18.4333 4.86501Z" fill="#707070"/>
</svg>
