<svg width="33" height="33" viewBox="0 0 33 33" fill="none" xmlns="http://www.w3.org/2000/svg">
<path d="M16.5 8.855V13.4338M16.5275 2.75C11.4675 2.75 7.36998 6.8475 7.36998 11.9075V14.795C7.36998 15.73 6.98498 17.1325 6.50373 17.93L4.75748 20.845C3.68498 22.6462 4.42748 24.6537 6.40748 25.3137C12.9817 27.5 20.087 27.5 26.6612 25.3137C27.095 25.169 27.4908 24.9287 27.8192 24.6105C28.1477 24.2923 28.4004 23.9044 28.5588 23.4754C28.7172 23.0464 28.7772 22.5873 28.7344 22.132C28.6915 21.6767 28.5469 21.2369 28.3112 20.845L26.565 17.93C26.0837 17.1325 25.6987 15.7163 25.6987 14.795V11.9075C25.685 6.875 21.56 2.75 16.5275 2.75Z" stroke="#707070" stroke-width="1.5" stroke-miterlimit="10" stroke-linecap="round"/>
<path d="M21.0788 25.8775C21.0788 28.3937 19.0163 30.4562 16.5 30.4562C15.2488 30.4562 14.0938 29.9337 13.2688 29.1087C12.4438 28.2837 11.9213 27.1287 11.9213 25.8775" stroke="#707070" stroke-width="1.5" stroke-miterlimit="10"/>
</svg>
