<svg width="29" height="29" viewBox="0 0 29 29" fill="none" xmlns="http://www.w3.org/2000/svg">
<path d="M18.125 27.4896H10.875C4.31374 27.4896 1.51041 24.6862 1.51041 18.125V10.875C1.51041 4.31374 4.31374 1.51041 10.875 1.51041H18.125C24.6862 1.51041 27.4896 4.31374 27.4896 10.875V18.125C27.4896 24.6862 24.6862 27.4896 18.125 27.4896ZM10.875 3.32291C5.30457 3.32291 3.32291 5.30457 3.32291 10.875V18.125C3.32291 23.6954 5.30457 25.6771 10.875 25.6771H18.125C23.6954 25.6771 25.6771 23.6954 25.6771 18.125V10.875C25.6771 5.30457 23.6954 3.32291 18.125 3.32291H10.875Z" fill="#707070"/>
<path d="M18.8258 23.2628C18.3304 23.2628 17.9196 22.852 17.9196 22.3566V17.6441C17.9196 17.1487 18.3304 16.7378 18.8258 16.7378C19.3213 16.7378 19.7321 17.1487 19.7321 17.6441V22.3566C19.7321 22.852 19.3213 23.2628 18.8258 23.2628ZM18.8258 9.90834C18.3304 9.90834 17.9196 9.49751 17.9196 9.00209V6.64584C17.9196 6.15043 18.3304 5.73959 18.8258 5.73959C19.3213 5.73959 19.7321 6.15043 19.7321 6.64584V9.00209C19.7321 9.49751 19.3213 9.90834 18.8258 9.90834Z" fill="#707070"/>
<path d="M18.8258 16.1917C18.0252 16.1917 17.2426 15.9543 16.5769 15.5095C15.9113 15.0647 15.3924 14.4325 15.086 13.6928C14.7797 12.9532 14.6995 12.1393 14.8557 11.3541C15.0119 10.5688 15.3974 9.84756 15.9635 9.28145C16.5296 8.71534 17.2509 8.32981 18.0361 8.17362C18.8213 8.01743 19.6352 8.0976 20.3749 8.40397C21.1146 8.71035 21.7468 9.22918 22.1916 9.89486C22.6363 10.5605 22.8737 11.3432 22.8737 12.1438C22.8737 14.3792 21.0492 16.1917 18.8258 16.1917ZM18.8258 9.90834C17.5933 9.90834 16.5904 10.9113 16.5904 12.1438C16.5904 13.3763 17.5933 14.3792 18.8258 14.3792C20.0583 14.3792 21.0612 13.3763 21.0612 12.1438C21.0612 10.9113 20.0462 9.90834 18.8258 9.90834ZM10.1742 23.2604C9.67875 23.2604 9.26791 22.8496 9.26791 22.3542V19.9979C9.26791 19.5025 9.67875 19.0917 10.1742 19.0917C10.6696 19.0917 11.0804 19.5025 11.0804 19.9979V22.3542C11.0804 22.8496 10.6817 23.2604 10.1742 23.2604ZM10.1742 12.2646C9.67875 12.2646 9.26791 11.8538 9.26791 11.3583V6.64584C9.26791 6.15043 9.67875 5.73959 10.1742 5.73959C10.6696 5.73959 11.0804 6.15043 11.0804 6.64584V11.3583C11.0804 11.8538 10.6817 12.2646 10.1742 12.2646Z" fill="#707070"/>
<path d="M10.1742 20.9066C9.64259 20.9066 9.11621 20.8019 8.6251 20.5985C8.13398 20.395 7.68774 20.0969 7.31186 19.721C6.93598 19.3451 6.63781 18.8989 6.43438 18.4077C6.23095 17.9166 6.12625 17.3903 6.12625 16.8587C6.12625 16.3271 6.23095 15.8007 6.43438 15.3096C6.63781 14.8185 6.93598 14.3723 7.31186 13.9964C7.68774 13.6205 8.13398 13.3223 8.6251 13.1189C9.11621 12.9155 9.64259 12.8108 10.1742 12.8108C11.2477 12.8108 12.2773 13.2372 13.0365 13.9964C13.7956 14.7555 14.2221 15.7851 14.2221 16.8587C14.2221 17.9323 13.7956 18.9619 13.0365 19.721C12.2773 20.4801 11.2477 20.9066 10.1742 20.9066ZM10.1742 14.6233C8.94167 14.6233 7.93875 15.6262 7.93875 16.8587C7.93875 18.0912 8.94167 19.0941 10.1742 19.0941C11.4067 19.0941 12.4096 18.0912 12.4096 16.8587C12.4096 15.6262 11.4188 14.6233 10.1742 14.6233Z" fill="#707070"/>
</svg>
