<svg width="14" height="14" viewBox="0 0 14 14" fill="none" xmlns="http://www.w3.org/2000/svg">
<g clip-path="url(#clip0_1_93)">
<path d="M12.8333 7.58334V5.25001C12.8333 2.33334 11.6667 1.16667 8.74999 1.16667H5.24999C2.33332 1.16667 1.16666 2.33334 1.16666 5.25001V8.75001C1.16666 11.6667 2.33332 12.8333 5.24999 12.8333H7.58332" stroke="#979393" stroke-width="1.5" stroke-linecap="round" stroke-linejoin="round"/>
<path d="M12.8333 7.58334V5.25001C12.8333 2.33334 11.6667 1.16667 8.74999 1.16667H5.24999C2.33332 1.16667 1.16666 2.33334 1.16666 5.25001V8.75001C1.16666 11.6667 2.33332 12.8333 5.24999 12.8333H7.58332" stroke="#979393" stroke-width="1.5" stroke-linecap="round" stroke-linejoin="round"/>
<path d="M12.8333 7.58334V5.25001C12.8333 2.33334 11.6667 1.16667 8.74999 1.16667H5.24999C2.33332 1.16667 1.16666 2.33334 1.16666 5.25001V8.75001C1.16666 11.6667 2.33332 12.8333 5.24999 12.8333H7.58332M9.33332 11.3342L10.255 12.25L12.25 9.91667M4.08332 6.12501V7.87501M6.99999 6.12501V7.87501M9.91666 6.12501V7.87501" stroke="#979393" stroke-width="1.5" stroke-linecap="round" stroke-linejoin="round"/>
</g>
<defs>
<clipPath id="clip0_1_93">
<rect width="14" height="14" fill="white"/>
</clipPath>
</defs>
</svg>
