<svg width="24" height="24" viewBox="0 0 24 24" fill="none" xmlns="http://www.w3.org/2000/svg">
<path d="M21.74 11.07C21.7153 10.825 21.6002 10.5981 21.4171 10.4335C21.234 10.2689 20.9961 10.1785 20.75 10.18H13.2C12.65 10.18 12.2 10.63 12.2 11.18V12.89C12.2 13.44 12.65 13.89 13.2 13.89H17.71C17.6 14.81 17 16.2 15.67 17.13C14.82 17.72 13.69 18.13 12.2 18.13C12.13 18.13 12.07 18.13 12 18.12C9.44995 18.04 7.28995 16.33 6.50995 13.98C6.29365 13.3422 6.1822 12.6735 6.17995 12C6.17995 11.31 6.29995 10.64 6.49995 10.02C6.55995 9.84 6.62995 9.66 6.70995 9.48C7.62995 7.41 9.63995 5.95 12 5.88C12.06 5.87 12.13 5.87 12.2 5.87C13.63 5.87 14.7 6.34 15.45 6.86C15.84 7.13 16.36 7.07 16.7 6.74L18.09 5.38C18.53 4.95 18.49 4.22 17.99 3.86C16.4 2.69 14.46 2 12.2 2C12.13 2 12.07 2 12 2.01C10.1813 2.04221 8.4062 2.57184 6.86723 3.54141C5.32825 4.51098 4.08417 5.88348 3.26995 7.51C2.58995 8.87 2.19995 10.39 2.19995 12C2.19995 13.61 2.58995 15.13 3.26995 16.49H3.27995C4.09303 18.1153 5.33547 19.4871 6.8726 20.4566C8.40973 21.4261 10.1829 21.9564 12 21.99C12.07 22 12.13 22 12.2 22C14.9 22 17.17 21.11 18.82 19.58C20.71 17.83 21.7999 15.27 21.7999 12.22C21.7999 11.79 21.78 11.42 21.74 11.07Z" fill="white"/>
</svg>
