<svg width="29" height="29" viewBox="0 0 29 29" fill="none" xmlns="http://www.w3.org/2000/svg">
<path d="M9.66666 26.9712C9.32832 26.9712 8.97791 26.8866 8.66374 26.7174C7.97499 26.3549 7.55207 25.6299 7.55207 24.8566V23.1408C3.90291 22.7662 1.51041 20.0837 1.51041 16.2412V8.99119C1.51041 4.83452 4.30166 2.04327 8.45832 2.04327H20.5417C24.6983 2.04327 27.4896 4.83452 27.4896 8.99119V16.2412C27.4896 20.3979 24.6983 23.1891 20.5417 23.1891H15.9862L10.8387 26.6208C10.4883 26.8504 10.0775 26.9712 9.66666 26.9712ZM8.45832 3.84369C5.34082 3.84369 3.32291 5.86161 3.32291 8.97911V16.2291C3.32291 19.3466 5.34082 21.3645 8.45832 21.3645C8.95374 21.3645 9.36457 21.7754 9.36457 22.2708V24.8445C9.36457 25.0016 9.46124 25.0741 9.52166 25.1104C9.58207 25.1466 9.70291 25.1829 9.83582 25.0983L15.2129 21.5216C15.3579 21.4249 15.5392 21.3645 15.7204 21.3645H20.5537C23.6712 21.3645 25.6892 19.3466 25.6892 16.2291V8.97911C25.6892 5.86161 23.6712 3.84369 20.5537 3.84369H8.45832Z" fill="#707070"/>
<path d="M14.5 14.6329C14.0046 14.6329 13.5938 14.2221 13.5938 13.7267V13.4729C13.5938 12.0713 14.6208 11.3825 15.0075 11.1167C15.4546 10.8146 15.5996 10.6092 15.5996 10.295C15.5996 9.69085 15.1042 9.19543 14.5 9.19543C13.8958 9.19543 13.4004 9.69085 13.4004 10.295C13.4004 10.7904 12.9896 11.2013 12.4942 11.2013C11.9988 11.2013 11.5879 10.7904 11.5879 10.295C11.5879 8.68793 12.8929 7.38293 14.5 7.38293C16.1071 7.38293 17.4121 8.68793 17.4121 10.295C17.4121 11.6725 16.3971 12.3613 16.0225 12.615C15.5513 12.9292 15.4063 13.1346 15.4063 13.4729V13.7267C15.4063 14.2342 14.9954 14.6329 14.5 14.6329ZM14.5 17.6441C14.3812 17.6443 14.2634 17.621 14.1536 17.5757C14.0437 17.5303 13.9438 17.4638 13.8597 17.3799C13.7755 17.2959 13.7087 17.1963 13.6631 17.0865C13.6175 16.9768 13.5939 16.8591 13.5938 16.7403C13.5936 16.6214 13.6168 16.5037 13.6622 16.3938C13.7075 16.284 13.7741 16.1841 13.858 16.1C13.9419 16.0158 14.0416 15.949 14.1513 15.9034C14.2611 15.8577 14.3787 15.8342 14.4976 15.834C14.7376 15.8337 14.9679 15.9287 15.1379 16.0982C15.3079 16.2677 15.4035 16.4978 15.4038 16.7379C15.4042 16.9779 15.3091 17.2082 15.1396 17.3782C14.9701 17.5481 14.74 17.6438 14.5 17.6441Z" fill="#707070"/>
</svg>
