<svg width="28" height="28" viewBox="0 0 28 28" fill="none" xmlns="http://www.w3.org/2000/svg">
<path d="M17.78 25.9816H17.6283C12.4483 25.9816 9.95166 23.94 9.51999 19.3666C9.47332 18.8883 9.82332 18.4566 10.3133 18.41C10.7917 18.3633 11.2233 18.725 11.27 19.2033C11.6083 22.8666 13.335 24.2316 17.64 24.2316H17.7917C22.54 24.2316 24.22 22.5516 24.22 17.8033V10.1966C24.22 5.44831 22.54 3.76831 17.7917 3.76831H17.64C13.3117 3.76831 11.585 5.15664 11.27 8.88998C11.2117 9.36831 10.815 9.72998 10.3133 9.68331C10.1983 9.67433 10.0863 9.64273 9.98352 9.59033C9.88077 9.53794 9.78938 9.46577 9.71459 9.37797C9.6398 9.29017 9.58308 9.18847 9.54769 9.07871C9.51229 8.96894 9.49891 8.85326 9.50832 8.73831C9.90499 4.09498 12.4133 2.01831 17.6283 2.01831H17.78C23.5083 2.01831 25.9583 4.46831 25.9583 10.1966V17.8033C25.9583 23.5316 23.5083 25.9816 17.78 25.9816Z" fill="#707070"/>
<path d="M17.36 14.875H2.33334C1.85501 14.875 1.45834 14.4783 1.45834 14C1.45834 13.5217 1.85501 13.125 2.33334 13.125H17.36C17.5921 13.125 17.8146 13.2172 17.9787 13.3813C18.1428 13.5454 18.235 13.7679 18.235 14C18.235 14.2321 18.1428 14.4546 17.9787 14.6187C17.8146 14.7828 17.5921 14.875 17.36 14.875Z" fill="#707070"/>
<path d="M14.7583 18.7834C14.5367 18.7834 14.315 18.7017 14.14 18.5267C13.9773 18.362 13.886 18.1399 13.886 17.9084C13.886 17.6769 13.9773 17.4547 14.14 17.29L17.43 14L14.14 10.71C13.9773 10.5454 13.886 10.3232 13.886 10.0917C13.886 9.86019 13.9773 9.63802 14.14 9.47335C14.4783 9.13502 15.0383 9.13502 15.3767 9.47335L19.285 13.3817C19.6233 13.72 19.6233 14.28 19.285 14.6184L15.3767 18.5267C15.2017 18.7017 14.98 18.7834 14.7583 18.7834Z" fill="#707070"/>
</svg>
