<svg width="21" height="18" viewBox="0 0 21 18" fill="none" xmlns="http://www.w3.org/2000/svg">
<path d="M-5.90104e-07 4.17999L-1.68726e-07 13.82C-7.56207e-08 15.95 1.74 17.68 3.86 17.68L17.95 17.68C19.75 17.68 20.51 16.39 19.64 14.81L16.93 9.92999C16.64 9.40999 16.64 8.56999 16.93 8.05999L19.64 3.17999C20.52 1.59999 19.76 0.309991 17.95 0.309991L3.86 0.309992C1.74 0.319992 -6.83209e-07 2.04999 -5.90104e-07 4.17999ZM9.4 6.49999L9.4 8.24999L11.21 8.24999C11.62 8.24999 11.96 8.58999 11.96 8.99999C11.96 9.40999 11.62 9.74999 11.21 9.74999L9.4 9.74999L9.4 11.5C9.4 11.91 9.06 12.25 8.65 12.25C8.24 12.25 7.9 11.91 7.9 11.5L7.9 9.74999L6.21 9.74999C5.8 9.74999 5.46 9.40999 5.46 8.99999C5.46 8.58999 5.8 8.24999 6.21 8.24999L7.9 8.24999L7.9 6.49999C7.9 6.08999 8.24 5.74999 8.65 5.74999C9.06 5.74999 9.4 6.08999 9.4 6.49999Z" fill="#FF1A0C"/>
</svg>
